<?xml version="1.0" encoding="UTF-8" standalone="no"?>
<!DOCTYPE svg PUBLIC "-//W3C//DTD SVG 1.1//EN" "http://www.w3.org/Graphics/SVG/1.1/DTD/svg11.dtd">
<svg width="100%" height="100%" viewBox="0 0 1398 961" version="1.1" xmlns="http://www.w3.org/2000/svg" xmlns:xlink="http://www.w3.org/1999/xlink" xml:space="preserve" xmlns:serif="http://www.serif.com/" style="fill-rule:evenodd;clip-rule:evenodd;stroke-linecap:round;stroke-linejoin:round;stroke-miterlimit:1.5;">
    <g transform="matrix(1,0,0,1,-431.358,-2159.33)">
        <g transform="matrix(1,0,0,1,-23.622,1192.91)">
            <g transform="matrix(0.983333,0,0,0.675,-472.071,330.709)">
                <circle cx="1653.54" cy="1653.54" r="708.661" style="fill:rgb(202,177,234);stroke:rgb(122,234,159);stroke-width:4.94px;"/>
            </g>
            <g transform="matrix(1,0,0,1,-102.715,0)">
                <g transform="matrix(1,0,0,1,-116.464,-1153.93)">
                    <path d="M1432.34,2591.57L1432.34,2621.43L1410.79,2621.43L1410.79,2504.77L1432.34,2504.77L1432.34,2564.59L1489.97,2504.77L1514.37,2504.77L1465.32,2556.98L1517.43,2621.43L1492.1,2621.43L1450.94,2572.56L1432.34,2591.57Z" style="stroke:rgb(122,234,159);stroke-width:1px;stroke-linecap:butt;stroke-miterlimit:2;"/>
                    <path d="M1535.29,2583.59C1535.85,2586.67 1536.9,2589.5 1538.44,2592.09C1540.86,2596.17 1544.29,2599.34 1548.73,2601.6C1553.17,2603.86 1558.31,2604.99 1564.16,2604.99C1569.16,2604.99 1573.65,2604.19 1577.63,2602.6C1581.61,2601 1585.15,2598.56 1588.25,2595.28L1599.5,2608.14C1595.44,2612.83 1590.37,2616.39 1584.31,2618.84C1578.25,2621.29 1571.34,2622.52 1563.58,2622.52C1553.72,2622.52 1545.09,2620.56 1537.69,2616.64C1530.28,2612.73 1524.54,2607.33 1520.47,2600.45C1516.4,2593.58 1514.36,2585.73 1514.36,2576.93C1514.36,2568.09 1516.35,2560.24 1520.31,2553.37C1524.28,2546.5 1529.75,2541.12 1536.71,2537.21C1543.67,2533.31 1551.56,2531.36 1560.37,2531.36C1569.08,2531.36 1576.83,2533.26 1583.62,2537.05C1590.4,2540.85 1595.74,2546.2 1599.63,2553.11C1603.51,2560.01 1605.46,2568.14 1605.46,2577.51C1605.46,2578.36 1605.42,2579.35 1605.36,2580.47C1605.3,2581.6 1605.21,2582.64 1605.1,2583.59L1535.29,2583.59ZM1535.12,2569.77L1585.66,2569.77C1585.25,2566.44 1584.27,2563.4 1582.73,2560.66C1580.53,2556.76 1577.53,2553.7 1573.71,2551.49C1569.89,2549.28 1565.46,2548.17 1560.41,2548.17C1555.37,2548.17 1550.91,2549.28 1547.03,2551.49C1543.16,2553.7 1540.15,2556.78 1538.01,2560.73C1536.55,2563.43 1535.58,2566.45 1535.12,2569.77Z" style="stroke:rgb(122,234,159);stroke-width:1px;stroke-linecap:butt;stroke-miterlimit:2;"/>
                    <path d="M1623.47,2549.71L1608.93,2549.71L1608.93,2533.09L1623.47,2533.09L1623.47,2512.81L1644.3,2512.81L1644.3,2533.09L1668.19,2533.09L1668.19,2549.71L1644.3,2549.71L1644.3,2592.15C1644.3,2596.38 1645.39,2599.66 1647.57,2601.99C1649.74,2604.32 1652.81,2605.48 1656.78,2605.48C1661.35,2605.48 1665.2,2604.26 1668.32,2601.83L1674.28,2616.67C1671.77,2618.63 1668.74,2620.09 1665.16,2621.06C1661.59,2622.03 1657.92,2622.52 1654.16,2622.52C1644.41,2622.52 1636.85,2620 1631.5,2614.96C1626.14,2609.92 1623.47,2602.48 1623.47,2592.63L1623.47,2549.71Z" style="stroke:rgb(122,234,159);stroke-width:1px;stroke-linecap:butt;stroke-miterlimit:2;"/>
                    <path d="M1723.84,2622.52C1714.71,2622.52 1706.57,2620.57 1699.43,2616.65C1692.29,2612.74 1686.65,2607.35 1682.53,2600.46C1678.41,2593.57 1676.36,2585.72 1676.36,2576.9C1676.36,2567.99 1678.42,2560.12 1682.56,2553.29C1686.7,2546.47 1692.32,2541.11 1699.42,2537.21C1706.53,2533.31 1714.67,2531.36 1723.84,2531.36C1733.01,2531.36 1741.18,2533.3 1748.35,2537.2C1755.51,2541.09 1761.13,2546.44 1765.21,2553.26C1769.29,2560.07 1771.33,2567.95 1771.33,2576.91C1771.33,2585.76 1769.29,2593.62 1765.23,2600.49C1761.16,2607.35 1755.53,2612.74 1748.33,2616.65C1741.13,2620.57 1732.97,2622.52 1723.84,2622.52ZM1723.84,2604.8C1728.94,2604.8 1733.47,2603.67 1737.43,2601.42C1741.4,2599.16 1744.53,2595.93 1746.83,2591.71C1749.13,2587.49 1750.28,2582.55 1750.28,2576.91C1750.28,2571.18 1749.13,2566.24 1746.83,2562.08C1744.53,2557.92 1741.4,2554.71 1737.43,2552.46C1733.47,2550.21 1728.96,2549.08 1723.91,2549.08C1718.86,2549.08 1714.36,2550.21 1710.39,2552.46C1706.43,2554.71 1703.27,2557.92 1700.92,2562.08C1698.57,2566.24 1697.4,2571.18 1697.4,2576.91C1697.4,2582.55 1698.57,2587.49 1700.92,2591.71C1703.27,2595.93 1706.42,2599.16 1710.38,2601.42C1714.34,2603.67 1718.82,2604.8 1723.84,2604.8Z" style="stroke:rgb(122,234,159);stroke-width:1px;stroke-linecap:butt;stroke-miterlimit:2;"/>
                    <path d="M1434.38,2754.77L1434.38,2656.41L1395.72,2656.41L1395.72,2638.1L1494.68,2638.1L1494.68,2656.41L1456.02,2656.41L1456.02,2754.77L1434.38,2754.77Z" style="stroke:rgb(122,234,159);stroke-width:1px;stroke-linecap:butt;stroke-miterlimit:2;"/>
                    <path d="M1522.09,2678.68C1524.61,2674.78 1528.01,2671.68 1532.27,2669.37C1538.04,2666.25 1545.16,2664.69 1553.62,2664.69L1553.62,2684.53C1552.73,2684.4 1551.91,2684.31 1551.16,2684.25C1550.41,2684.18 1549.67,2684.15 1548.91,2684.15C1541.02,2684.15 1534.74,2686.45 1530.06,2691.04C1525.39,2695.62 1523.05,2702.5 1523.05,2711.66L1523.05,2754.77L1502.22,2754.77L1502.22,2665.78L1522.09,2665.78L1522.09,2678.68Z" style="stroke:rgb(122,234,159);stroke-width:1px;stroke-linecap:butt;stroke-miterlimit:2;"/>
                    <path d="M1615.16,2744.16C1613.11,2747.18 1610.34,2749.65 1606.86,2751.58C1601.71,2754.43 1595.19,2755.85 1587.3,2755.85C1580.53,2755.85 1574.65,2754.72 1569.65,2752.45C1564.65,2750.19 1560.8,2747.04 1558.1,2743C1555.4,2738.97 1554.05,2734.39 1554.05,2729.26C1554.05,2724.24 1555.26,2719.75 1557.68,2715.78C1560.1,2711.82 1564.03,2708.66 1569.47,2706.31C1574.91,2703.95 1582.11,2702.78 1591.07,2702.78L1614.1,2702.78L1614.1,2701.42C1614.1,2695.34 1612.25,2690.59 1608.56,2687.19C1604.87,2683.8 1599.29,2682.1 1591.83,2682.1C1586.84,2682.1 1581.95,2682.88 1577.15,2684.45C1572.35,2686.02 1568.25,2688.16 1564.87,2690.86L1556.78,2675.75C1561.54,2672.13 1567.22,2669.38 1573.85,2667.5C1580.47,2665.63 1587.34,2664.69 1594.45,2664.69C1607.31,2664.69 1617.27,2667.78 1624.33,2673.96C1631.4,2680.14 1634.93,2689.67 1634.93,2702.58L1634.93,2754.77L1615.16,2754.77L1615.16,2744.16ZM1614.1,2716.59L1592.57,2716.59C1585.48,2716.59 1580.7,2717.74 1578.23,2720.03C1575.77,2722.32 1574.54,2725.14 1574.54,2728.47C1574.54,2732.22 1576.05,2735.2 1579.06,2737.42C1582.08,2739.63 1586.23,2740.73 1591.52,2740.73C1596.69,2740.73 1601.3,2739.58 1605.35,2737.27C1609.41,2734.96 1612.32,2731.53 1614.1,2726.99L1614.1,2716.59Z" style="stroke:rgb(122,234,159);stroke-width:1px;stroke-linecap:butt;stroke-miterlimit:2;"/>
                    <path d="M1697.79,2755.85C1688.51,2755.85 1680.22,2753.9 1672.93,2750C1665.65,2746.1 1659.94,2740.71 1655.81,2733.83C1651.68,2726.95 1649.62,2719.1 1649.62,2710.26C1649.62,2701.33 1651.68,2693.45 1655.81,2686.63C1659.94,2679.81 1665.65,2674.45 1672.93,2670.55C1680.22,2666.64 1688.51,2664.69 1697.79,2664.69C1706.49,2664.69 1714.15,2666.45 1720.78,2669.97C1727.41,2673.49 1732.42,2678.65 1735.8,2685.45L1719.84,2694.85C1717.18,2690.63 1713.93,2687.5 1710.1,2685.47C1706.26,2683.43 1702.11,2682.42 1697.63,2682.42C1692.53,2682.42 1687.93,2683.54 1683.85,2685.8C1679.77,2688.05 1676.55,2691.25 1674.2,2695.41C1671.84,2699.57 1670.66,2704.52 1670.66,2710.26C1670.66,2716 1671.84,2720.96 1674.2,2725.12C1676.55,2729.29 1679.77,2732.5 1683.85,2734.75C1687.93,2737 1692.53,2738.13 1697.63,2738.13C1702.11,2738.13 1706.26,2737.14 1710.1,2735.15C1713.93,2733.17 1717.18,2730.01 1719.84,2725.69L1735.8,2735.09C1732.42,2741.8 1727.41,2746.93 1720.78,2750.5C1714.15,2754.07 1706.49,2755.85 1697.79,2755.85Z" style="stroke:rgb(122,234,159);stroke-width:1px;stroke-linecap:butt;stroke-miterlimit:2;"/>
                    <path d="M1769.24,2731.32L1769.24,2754.77L1748.4,2754.77L1748.4,2631.1L1769.24,2631.1L1769.24,2705.73L1812.38,2665.78L1837.44,2665.78L1800.16,2703.03L1840.87,2754.77L1815.54,2754.77L1784.68,2716.62L1769.24,2731.32Z" style="stroke:rgb(122,234,159);stroke-width:1px;stroke-linecap:butt;stroke-miterlimit:2;"/>
                </g>
                <g transform="matrix(1,0,0,1,-39.3352,-35.1496)">
                    <path d="M944.882,1181.1L923.9,1181.1C914.122,1181.1 906.183,1173.16 906.183,1163.39L906.183,1127.95C906.183,1118.17 914.122,1110.24 923.9,1110.24L1375.24,1110.24C1385.02,1110.24 1392.96,1118.17 1392.96,1127.95L1392.96,1163.39C1392.96,1173.16 1385.02,1181.1 1375.24,1181.1L1063.47,1181.1L1063.47,1437.85L1272.97,1228.35C1286.01,1215.31 1296.6,1215.31 1296.6,1228.35L1296.6,1275.59C1296.6,1288.63 1286.01,1309.8 1272.97,1322.84L1094.29,1501.52L1272.97,1680.2C1286.01,1693.24 1296.6,1714.41 1296.6,1727.44L1296.6,1774.69C1296.6,1787.73 1286.01,1787.73 1272.97,1774.69L1063.47,1565.18L1063.47,1824.12C1063.47,1840.48 1050.18,1853.76 1033.82,1853.76L974.528,1853.76C958.166,1853.76 944.882,1840.48 944.882,1824.12L944.882,1181.1Z" style="stroke:rgb(122,234,159);stroke-width:4.17px;"/>
                    <g transform="matrix(1,0,0,1,-242.126,-153.543)">
                        <g transform="matrix(1,0,0,1,82.6772,165.354)">
                            <circle cx="1399.61" cy="1494.09" r="53.15" style="fill:none;stroke:black;stroke-width:2.08px;"/>
                        </g>
                        <g transform="matrix(1.22222,0,0,1.22222,-228.346,-166.667)">
                            <circle cx="1399.61" cy="1494.09" r="53.15" style="fill:none;stroke:black;stroke-width:1.7px;"/>
                        </g>
                        <g transform="matrix(0.666667,0,0,0.666667,549.213,663.386)">
                            <circle cx="1399.61" cy="1494.09" r="53.15" style="fill:none;stroke:black;stroke-width:3.13px;"/>
                        </g>
                        <g transform="matrix(0.969573,0,0,0.969573,131.708,216.541)">
                            <ellipse cx="1392.96" cy="1488.19" rx="24.363" ry="23.622" style="fill:rgb(122,234,159);stroke:black;stroke-width:1.03px;"/>
                        </g>
                        <g transform="matrix(0.36359,0,0,0.36359,1006.25,1136.08)">
                            <ellipse cx="1392.96" cy="1488.19" rx="24.363" ry="23.622" style="fill:rgb(122,234,159);stroke:black;stroke-width:2.75px;"/>
                        </g>
                        <g transform="matrix(0.36359,0,0,0.36359,922.668,1157.7)">
                            <ellipse cx="1392.96" cy="1488.19" rx="24.363" ry="23.622" style="fill:rgb(122,234,159);stroke:black;stroke-width:2.75px;"/>
                        </g>
                        <g transform="matrix(0.36359,0,0,0.36359,972.865,1065.35)">
                            <ellipse cx="1392.96" cy="1488.19" rx="24.363" ry="23.622" style="fill:rgb(122,234,159);stroke:black;stroke-width:2.75px;"/>
                        </g>
                    </g>
                </g>
            </g>
        </g>
    </g>
</svg>
